<?xml version="1.0" standalone="no"?>
<!DOCTYPE svg PUBLIC "-//W3C//DTD SVG 20010904//EN"
 "http://www.w3.org/TR/2001/REC-SVG-20010904/DTD/svg10.dtd">
<svg version="1.0" xmlns="http://www.w3.org/2000/svg"
 width="700.000000pt" height="700.000000pt" viewBox="0 0 700.000000 700.000000"
 preserveAspectRatio="xMidYMid meet">
<metadata>
Created by potrace 1.14, written by Peter Selinger 2001-2017
</metadata>
<g transform="translate(0.000000,700.000000) scale(0.100000,-0.100000)"
fill="#000000" stroke="none">
<path d="M3319 6605 c-2 -1 -29 -6 -59 -9 -249 -29 -537 -130 -757 -268 -220
-136 -480 -391 -592 -579 -178 -299 -258 -530 -292 -844 -11 -102 -7 -363 6
-425 3 -14 8 -45 11 -70 3 -25 14 -79 24 -120 11 -41 18 -75 17 -77 -3 -2 -53
-12 -97 -18 -416 -61 -857 -311 -1133 -643 -218 -261 -385 -622 -422 -912 -3
-25 -10 -74 -15 -110 -12 -95 -4 -391 14 -495 22 -125 22 -127 52 -229 169
-590 633 -1071 1219 -1264 208 -68 373 -94 595 -94 114 0 193 5 260 16 14 3
43 7 65 11 137 20 366 95 509 167 274 138 552 376 704 605 19 29 38 53 41 53
4 0 27 -28 51 -62 242 -344 627 -612 1035 -723 50 -13 104 -27 120 -29 17 -3
53 -10 80 -15 145 -28 410 -31 555 -6 14 2 41 6 60 9 64 10 94 17 146 32 28 8
60 16 70 18 47 10 179 63 289 116 432 210 750 556 931 1010 57 144 72 203 69
262 -2 37 4 73 20 118 21 57 43 130 45 152 1 4 5 22 10 39 5 18 12 48 15 68 3
20 8 48 11 61 10 39 13 404 4 447 -4 21 -11 58 -14 83 -11 87 -18 118 -64 270
-113 371 -387 693 -637 748 -180 40 -226 53 -280 77 -33 15 -94 43 -135 62
-153 71 -322 129 -430 146 -117 20 -112 18 -106 41 7 23 41 179 51 236 11 56
15 410 6 475 -18 124 -23 152 -47 250 -42 164 -115 345 -200 491 -175 302
-464 575 -774 729 -52 26 -103 51 -114 57 -10 5 -26 11 -35 14 -9 2 -54 17
-101 34 -75 28 -228 65 -345 85 -41 7 -430 16 -436 10z"/>
</g>
</svg>
