<svg xmlns="http://www.w3.org/2000/svg" xmlns:xlink="http://www.w3.org/1999/xlink" height="146.306" width="165.887" xmlns:v="https://vecta.io/nano"><g fill-rule="evenodd"><path d="M148.353 67.769l1.679 1.514 1.585 1.586 1.492 1.649 1.389 1.711 1.295 1.752 1.202 1.815 1.098 1.856 1.005 1.897.901 1.939.808 1.98.705 2.001.611 2.032.508 2.053.414 2.084.311 2.084.207 2.105.114 2.105.01 2.115-.093 2.115-.197 2.105-.29 2.105-.394 2.084-.508 2.074-.601 2.053-.694 2.032-.808 2.001-.912 1.98-1.015 1.929-1.119 1.897-1.223 1.856-1.326 1.804-1.43 1.763-1.513 1.68-1.585 1.586-1.648 1.483-1.699 1.4-1.762 1.296-1.813 1.192-1.855 1.109-1.896.995-1.938.912-1.979.809-2 .705-2.031.612-2.052.508-2.072.415-2.093.301-2.103.218-2.103.104-2.114.01-2.114-.083-2.103-.197-2.103-.29-2.083-.404-2.072-.498-2.052-.601-2.031-.705-2-.798-1.969-.912-1.938-1.016-1.896-1.12-1.855-1.223-1.803-1.327-1.751-1.431-1.689-1.514-1.585-1.586-1.482-1.649-1.399-1.711-1.295-1.752-1.192-1.815-1.098-1.856-1.005-1.897-.901-1.939-.808-1.98-.715-2.001-.601-2.032-.518-2.053-.404-2.084-.311-2.084-.218-2.105-.104-2.105-.01-2.115.093-2.115.187-2.105.3-2.105.394-2.084.497-2.074.601-2.053.705-2.032.808-2.001.912-1.98 1.005-1.929 1.119-1.897 1.223-1.856 1.326-1.804 1.43-1.763 1.523-1.68 1.585-1.586 1.637-1.483 1.71-1.4 1.762-1.296 1.803-1.192 1.855-1.109 1.907-.995 1.938-.912 1.969-.809 2-.705 2.031-.612 2.062-.508 2.072-.404 2.083-.311 2.103-.218 2.114-.104 2.103-.01 2.114.093 2.114.187 2.093.301 2.093.394 2.072.498 2.052.601 2.021.705 2.01.809 1.969.902 1.938 1.016 1.896 1.12 1.844 1.223 1.813 1.327 1.751 1.431z" fill="#fff"/><g fill="#13a04a"><path d="M155.534 85.583l-.57-1.192-.632-1.172-.684-1.161-.736-1.12-.777-1.109-.829-1.068-.881-1.058-.912-1.016-.943-.995-.984-.964-1.005-.933-1.047-.912-1.057-.871-1.078-.84-1.109-.798-1.109-.778-1.129-.736-1.129-.695-1.129-.664-1.14-.632-1.14-.591-1.129-.539-1.129-.508-1.109-.467-1.098-.435-1.078-.373-1.057-.342-1.036-.29-1.005-.249-.984-.207-.943-.156-.912-.104-1.223-.104-1.212-.062-1.192-.041-1.171.01-1.15.031-1.129.062-1.109.104-1.088.124-1.078.166-1.057.187-1.036.218-1.026.249-1.005.28-.995.301-.974.332-.964.363-.943.384-.933.415-.912.446-.912.456-.891.487-.87.518-.87.529-.86.56-.839.581-.829.601-.829.622-.808.643-.808.664-.788.684-.788.705-.777.726-.912.892-.87.923-.85.954-.808.985-.777 1.006-.736 1.026-.705 1.047-.674 1.078-.632 1.089-.601 1.109-.56 1.12-.518 1.141-.497 1.161-.446 1.161-.414 1.182-.383 1.182-.342 1.192-.3 1.203-.269 1.213-.228 1.203-.187 1.213-.155 1.213L81 99.352l-.073 1.213-.041 1.213.01 1.203.041 1.192.083 1.182.124 1.182.166 1.172.207 1.151.249 1.141.964 3.453 1.212 3.235 1.451 3.048 1.658 2.841 1.865 2.634 2.052 2.426 2.217 2.229 2.373 2.012 2.518 1.804 2.632 1.586 2.736 1.379 2.829 1.172 2.891.944 2.964.726 2.995.518 3.026.28 3.036.073 3.036-.156 3.005-.384 2.964-.612 2.912-.829 2.85-1.068 2.756-1.296 2.653-1.535 2.539-1.763 2.404-2.001 2.249-2.24 2.083-2.468 1.907-2.717 1.699-2.965 1.492-3.194 1.264-3.453-12.175.477-.041-.238-.041-.249-.041-.259-.031-.27-.021-.27-.021-.28-.021-.29-.01-.29v-.29-.301l.01-.29.021-.301.021-.29.021-.29.031-.28.041-.28.446-.073.487-.062.518-.041.549-.041.57-.021.591-.021.601-.021h.601l.611-.01h.611l.611.01h.591.58.549l.528-.01h.497l1.616-.052 1.471-.062.684-.031.642-.021.611-.01h.57l.539.01.497.021.456.052.414.073.383.093.342.114.29.156.259.176.218.218.176.259.135.29.083.342.052.384v.435l-.041.487-.083.539-.135.591-.176.653-.218.715-.269.778-.311.85-.363.912-.414.995-.456 1.068-.259.57-.259.56-.259.56-.28.55-.28.55-.28.539-.29.529-.3.529-.3.518-.311.518-.311.508-.321.508-.321.498-.332.487-.342.487-.342.487-.881 1.172-.912 1.151-.964 1.109-.995 1.078-1.036 1.047-1.067 1.016-1.109.985-1.14.933-1.171.912-1.202.871-1.233.829-1.264.788-1.295.747-1.316.705-1.337.674-1.368.622-1.388.57-1.399.539-1.43.477-1.451.446-1.461.394-1.482.342-1.502.29-1.502.238-1.523.187-1.534.135-1.544.083-1.554.031-1.554-.031-1.565-.083-1.575-.135-1.575-.207-2.176-.373-2.135-.467-2.103-.57-2.052-.674-2-.757-1.958-.85-1.896-.933-1.855-1.026-1.782-1.099-1.741-1.182-1.668-1.255-1.606-1.338-1.544-1.4-1.471-1.472-1.409-1.524-1.326-1.597-1.254-1.659-1.181-1.7-1.098-1.773-1.015-1.804-.933-1.866-.839-1.908-.756-1.949-.663-1.98-.57-2.022-.477-2.063-.383-2.084-.269-2.115-.176-2.136-.062-2.167.041-2.177.145-2.198.321-2.582.456-2.52.601-2.457.725-2.395.86-2.333.974-2.25 1.098-2.188 1.212-2.115 1.316-2.032 1.42-1.949 1.513-1.866 1.606-1.773 1.699-1.69 1.772-1.597 1.855-1.503 1.927-1.41 1.99-1.296 2.052-1.203 2.114-1.099 2.155-.975 2.207-.881 2.249-.757 2.29-.632 2.311-.518 2.342-.394 2.363-.27 2.373-.145 2.394-.01 2.394.124 2.394.27 2.383.394 2.383.55.694.197.663.197.642.207.622.207.591.218.58.218.56.218.539.218.528.218.508.228.487.218.487.218.933.435.891.425.87.415.85.384.425.187.425.176.425.166.425.166.435.145.435.145.446.135.446.114.456.114.477.093.477.083.487.073 1.285.238 1.254.363 1.223.487 1.212.612 1.171.715 1.14.84 1.109.944 1.067 1.037 1.015 1.13.984 1.234.933 1.306.881 1.379.839 1.462.767 1.524.725 1.597.653 1.649.591 1.7.518 1.752.456 1.783.373 1.825.3 1.856.228 1.887.135 1.908.062 1.918-.031 1.929-.124 1.939-.218 1.939-.311 1.929-.404 1.918-.518 1.897-.611 1.887-.736 1.856-.166-.228-.28-.394-.363-.539-.446-.653-.497-.757-.549-.84-.591-.892-.622-.923-.622-.954-.622-.933-.611-.912-.591-.871-.549-.798-.487-.705-.435-.601-.352-.467-.249-.29-.29-.332-.321-.342-.363-.363-.383-.373-.404-.373-.414-.384-.435-.394-.446-.373-.446-.373-.446-.363-.435-.342-.425-.321-.404-.29-.394-.27-.363-.228-.332-.218-.311-.187-.29-.166-.269-.156-.269-.135-.238-.124-.238-.104-.228-.093-.218-.073-.218-.073-.207-.052-.207-.041-.207-.041-.207-.031-.207-.021-.207-.01-.446-.021h-.466-.528-.58-.653l-.746-.031-.414-.021-.435-.031-.466-.041-.487-.052-1.067-.353-.995-.404-.912-.446-.839-.498-.756-.539-.705-.57-.622-.612-.56-.632-.508-.664-.435-.695-.373-.705-.332-.726-.269-.747-.218-.747-.166-.757-.124-.757-.073-.757-.041-.757.01-.747.041-.726.083-.726.104-.705.145-.674.176-.664.197-.622.218-.591.238-.56.259-.529.28-.477.3-.435.3-.384.311-.332.456.052.446.041.456.031.446.031.456.031.446.031.456.031.466.041.456.052.466.062.466.083.477.083.477.114.477.124.238.073.249.073.249.093.238.083.435.176.435.176.435.197.435.207.435.228.446.238.435.249.446.259.446.28.446.29.446.311.446.311.456.332.446.353.456.353.456.373.456.394.466.394.456.415.466.435.466.435.466.456.466.477.477.477.477.498.477.518.477.529.487.539.477.55.487.57.487.591.497.591z"/><path d="M133.908 104.06l-.062.083-.052.114-.052.145-.041.187-.041.207-.031.238-.021.259-.021.28-.021.632-.01.684.01.736.021.767.031.767.041.767.041.726.041.695.041.622.031.55.031.446.021.321.01.363.01.487.01.581.021.653.031.695.062.726.031.363.041.353.052.353.062.342.062.332.083.321.083.301.104.27.114.259.124.218.135.197.155.166.166.124.176.083.197.041h.218l.228-.052.249-.104.269-.156.29-.218.104-.104.093-.145.083-.166.073-.187.052-.218.052-.249.052-.259.031-.28.021-.311.021-.311.01-.332.01-.342v-.715l-.031-.736-.041-.747-.041-.736-.062-.715-.062-.684-.052-.622-.062-.56-.041-.477-.031-.373-.021-.353v-.487l-.01-.591-.021-.674-.021-.715-.052-.757-.031-.373-.041-.373-.041-.363-.062-.363-.062-.342-.083-.321-.093-.311-.093-.28-.124-.259-.124-.218-.145-.197-.155-.156-.176-.114-.197-.073-.207-.021-.228.021-.249.083-.269.135-.3.187-.311.259zm-8.538 7.258l.041.539.041.56.031.581.021.57.021.591.021.591.021.591.021.591.021.581.031.581.031.57.031.56.052.539.052.529.062.508.083.487.218.104.207.083.187.073.187.052.176.041.166.021.166.021h.155l.145-.01.155-.021.155-.031.145-.031.321-.093.332-.104.062-.176.062-.228.041-.28.041-.342.021-.384.031-.435.01-.467.01-.508v-1.109l-.021-1.203-.031-1.275-.052-1.306-.062-1.317-.073-1.286-.073-1.224-.083-1.141-.073-1.026-.073-.861-.062-.684-.062-.467-.404-.176-.373-.124-.342-.083-.3-.041h-.28l-.259.041-.218.083-.207.114-.166.135-.155.176-.135.197-.104.228-.093.249-.073.27-.062.28-.041.301-.031.311-.01.332-.01.332.01.332.01.342.021.342.021.342.031.342.073.664.073.622.073.55.041.487zm-10.103.394l-.207.301-.176.301-.135.301-.083.301-.062.29-.021.29.01.28.041.27.073.259.104.259.124.238.145.228.176.218.187.207.207.187.218.176.238.145.238.135.259.124.269.093.269.073.269.052.269.021h.28l.269-.021.269-.052.269-.083.249-.114.249-.135.238-.176.218-.207.207-.238.218-.311.176-.311.135-.311.093-.301.062-.301.031-.301-.01-.29-.031-.28-.073-.27-.093-.259-.114-.249-.145-.238-.155-.228-.187-.207-.197-.187-.218-.176-.238-.156-.238-.135-.259-.124-.259-.093-.269-.062-.269-.052-.28-.021-.28.01-.28.031-.28.062-.269.083-.269.124-.249.156-.249.187-.238.228-.228.259zm-4.787-13.407l.145-.156.155-.145.166-.124.166-.114.176-.104.187-.083.187-.083.187-.062.207-.062.197-.041.207-.041.218-.031.218-.021.218-.01.228-.01h.228l.456.01.466.031.466.041.466.062.922.114.891.093.466.031.477.041.466.041.466.041.466.031.466.041.466.041.466.041.466.031.466.041.466.041.466.031.477.041.477.041.477.041.477.031 3.098.238 2.684.197 2.3.166 1.938.156.85.083.777.083.694.093.632.093.56.114.508.114.435.135.394.156.332.166.29.187.249.218.207.238.166.259.135.29.114.321.083.363.073.384.041.425.041.467.021.508.031 1.151.052 1.338.031.912.052.902.041.881.041.871.052.881.041.871.041.892.041.912.052 1.286.062 1.172.073 1.068.062.975.052.881.031.788.021.715-.01.632-.052.57-.083.498-.135.446-.187.394-.249.342-.311.301-.383.27-.456.238-.539.207-.632.197-.725.176-.829.176-.933.176-1.057.176-1.161.187-1.295.207-1.43.218-1.565.259-1.71.28-1.865.321-2.01.363-2.186.415-2.342.477-2.528.529-.725.145-.684.124-.632.083-.58.062-.528.021-.487-.021-.446-.052-.394-.083-.363-.124-.332-.166-.29-.207-.259-.238-.228-.29-.197-.332-.176-.373-.155-.415-.124-.467-.104-.518-.093-.56-.073-.601-.062-.664-.041-.715-.041-.767-.031-.809-.041-1.804-.052-2.032-.021-1.099-.031-1.161-.031-1.213-.052-1.286-.031-.612-.052-.747-.073-.861-.073-.964-.073-1.026-.083-1.089-.062-1.12-.052-1.12-.021-.56-.01-.56-.01-.55v-.529l.01-.529.021-.498.021-.487.041-.467.041-.435.062-.415.073-.384.083-.353.093-.311.114-.28.124-.238.135-.187zm-2.28 5.9l.062 3.173-.342.062-.404.052-.456.052-.508.052-.539.041-.57.031-.591.031-.601.031-.611.031-.601.021-.591.021-.56.01-.539.021-.497.01-.456.01-.394.01-.466.021-.508.041-.528.052-.549.052-.56.052-.58.052-.58.041-.58.021-.28.01h-.29l-.28-.01-.28-.01-.28-.01-.269-.031-.269-.031-.259-.041-.259-.052-.249-.062-.238-.083-.228-.083-.228-.093-.218-.114-.197-.114-.197-.145.01-.259.01-.249.021-.228.031-.218.041-.197.041-.176.062-.166.073-.145.073-.135.093-.124.114-.114.114-.104.135-.083.155-.083.166-.062.187-.062.197-.052.218-.052.249-.031.259-.031.28-.031.3-.021.332-.021.352-.021.767-.031.881-.021.984-.031 1.098-.031.518-.031.539-.031.58-.031.591-.041.611-.041.622-.052.632-.041.632-.041.632-.041.622-.031.611-.021.601-.01h.58l.549.01.518.021.487.041zm.58 14.972l.218 3.297-.518-.01-.539-.01-.58.01-.601.021-.622.031-.642.031-.653.041-.674.052-1.368.104-1.389.114-1.378.093-1.337.083-.642.031-.632.021h-.601-.58l-.56-.021-.518-.031-.487-.052-.446-.073-.404-.093-.373-.104-.311-.135-.269-.156-.207-.187-.155-.207-.093-.238-.031-.27v-.187l.021-.176.021-.166.041-.145.041-.145.052-.124.062-.114.073-.104.073-.093.093-.083.083-.073.104-.073.104-.052.104-.052.114-.052.114-.031.124-.041.124-.021.135-.021.124-.021.28-.031.269-.01.57-.021.549-.021 13.118-.487z"/></g><path d="M44.722 59.537l2.155.052 2.135.166 2.093.259 2.062.373 2.031.467 1.99.57 1.938.653 1.907.757 1.855.84 1.803.923 1.762 1.006 1.699 1.089 1.637 1.172 1.585 1.244 1.523 1.317 1.451 1.389 1.389 1.452 1.316 1.524 1.243 1.586 1.171 1.638 1.088 1.7 1.005 1.763.922 1.804.839 1.856.756 1.908.653 1.949.57 1.98.466 2.032.373 2.063.259 2.094.166 2.136.052 2.157-.052 2.157-.166 2.126-.259 2.094-.373 2.063-.466 2.032-.57 1.991-.653 1.949-.756 1.897-.839 1.856-.922 1.815-1.005 1.752-1.088 1.7-1.171 1.649-1.243 1.576-1.316 1.524-1.389 1.452-1.451 1.389-1.523 1.317-1.585 1.244-1.637 1.172-1.699 1.089-1.762 1.016-1.803.923-1.855.84-1.907.747-1.938.664-1.99.56-2.031.467-2.062.373-2.093.27-2.135.156-2.155.062-2.155-.062-2.124-.156-2.093-.27-2.062-.373-2.031-.467-1.99-.56-1.948-.664-1.896-.747-1.855-.84-1.813-.923-1.751-1.016-1.699-1.089-1.648-1.172-1.575-1.244-1.523-1.317-1.451-1.389-1.389-1.452-1.316-1.524-1.243-1.576-1.171-1.649-1.088-1.7-1.015-1.752-.922-1.815-.839-1.856-.746-1.897-.663-1.949-.56-1.991-.466-2.032-.373-2.063-.269-2.094-.155-2.126-.062-2.157.062-2.157.155-2.136.269-2.094.373-2.063.466-2.032.56-1.98.663-1.949.746-1.908.839-1.856.922-1.804 1.015-1.763 1.088-1.7 1.171-1.638 1.243-1.586 1.316-1.524 1.389-1.452 1.451-1.389 1.523-1.317 1.575-1.244 1.648-1.172 1.699-1.089 1.751-1.006 1.813-.923 1.855-.84 1.896-.757 1.948-.653 1.99-.57 2.031-.467 2.062-.373 2.093-.259 2.124-.166 2.155-.052z" fill="#fff"/></g><path d="M44.722 56.696l1.161.021 1.14.041 1.14.073 1.14.104 1.119.124 1.119.156 1.098.187 1.098.207 1.088.238 1.078.259 1.067.29 1.057.311 1.047.342 1.026.363 1.026.394 1.005.415 1.005.435.984.456.964.487.964.498.943.529.922.55.922.57.901.601.881.612.87.632.85.653.839.674.819.695.798.715.788.726.767.757.756.767.725.788.715.798.694.819.674.84.653.85.632.871.611.881.601.902.57.923.549.923.528.944.497.964.487.964.456.985.435 1.006.414 1.006.394 1.026.363 1.026.342 1.047.311 1.058.29 1.068.259 1.078.238 1.089.207 1.099.187 1.099.155 1.12.124 1.12.104 1.141.073 1.141.041 1.141.021 1.161-.021 1.151-.041 1.151-.073 1.141-.104 1.13-.124 1.12-.155 1.12-.187 1.109-.207 1.099-.238 1.078-.259 1.078-.29 1.068-.311 1.058-.342 1.047-.363 1.037-.394 1.016-.414 1.016-.435.995-.456.985-.487.975-.497.954-.528.944-.549.933-.57.912-.601.902-.611.881-.632.871-.653.861-.674.829-.694.819-.715.809-.725.788-.756.767-.767.747-.788.736-.798.705-.819.695-.839.674-.85.653-.87.643-.881.612-.901.591-.922.57-.922.55-.943.529-.964.508-.964.477-.984.467-1.005.435-1.005.415-1.026.384-1.026.363-1.047.342-1.057.311-1.067.29-1.078.259-1.088.238-1.098.218-1.098.176-1.119.156-1.119.135-1.14.093-1.14.073-1.14.052-1.161.01-1.15-.01-1.15-.052-1.14-.073-1.129-.093-1.119-.135-1.119-.156-1.109-.176-1.098-.218-1.078-.238-1.078-.259-1.067-.29-1.057-.311-1.047-.342-1.036-.363-1.015-.384-1.015-.415-.995-.435-.984-.467-.974-.477-.953-.508-.943-.529-.933-.55-.912-.57-.901-.591-.881-.612-.87-.643-.86-.653-.829-.674-.819-.695-.808-.705-.788-.736-.767-.747-.746-.767-.736-.788-.705-.809-.694-.819-.674-.829-.653-.861-.642-.871-.611-.881-.591-.902-.57-.912-.549-.933-.528-.944-.508-.954-.477-.975-.466-.985-.435-.995-.414-1.016-.383-1.016-.363-1.037-.342-1.047-.311-1.058-.29-1.068-.259-1.078-.238-1.078-.218-1.099-.176-1.109-.155-1.12-.135-1.12-.093-1.13-.073-1.141-.052-1.151-.01-1.151.01-1.161.052-1.141.073-1.141.093-1.141.135-1.12.155-1.12.176-1.099.218-1.099.238-1.089.259-1.078.29-1.068.311-1.058.342-1.047.363-1.026.383-1.026.414-1.006.435-1.006.466-.985.477-.964.508-.964.528-.944.549-.923.57-.923.591-.902.611-.881.642-.871.653-.85.674-.84.694-.819.705-.798.736-.788.746-.767.767-.757.788-.726.808-.715.819-.695.829-.674.86-.653.87-.632.881-.612.901-.601.912-.57.933-.55.943-.529.953-.498.974-.487.984-.456.995-.435 1.015-.415 1.015-.394 1.036-.363 1.047-.342 1.057-.311 1.067-.29 1.078-.259 1.078-.238 1.098-.207 1.109-.187 1.119-.156 1.119-.124 1.129-.104 1.14-.073 1.15-.041 1.15-.021zm27.625 17.119l-.674-.653-.684-.632-.705-.622-.715-.612-.725-.591-.746-.57-.767-.55-.767-.539-.788-.518-.798-.498-.808-.477-.829-.467-.839-.435-.839-.425-.86-.404-.87-.373-.891-.363-.891-.342-.901-.321-.912-.29-.922-.28-.933-.249-.933-.228-.953-.207-.953-.187-.974-.156-.974-.135-.974-.114-.995-.093-.995-.062-.995-.031-1.015-.021-1.005.021-1.005.031-.995.062-.984.093-.984.114-.974.135-.964.156-.953.187-.953.207-.943.228-.933.249-.922.28-.912.29-.901.321-.891.342-.881.363-.87.373-.86.404-.85.425-.829.435-.829.467-.808.477-.798.498-.788.518-.777.539-.756.55-.746.57-.725.591-.725.612-.694.622-.684.632-.674.653-.653.674-.642.684-.622.705-.601.715-.591.736-.57.736-.56.767-.528.767-.518.788-.497.798-.487.809-.456.829-.446.84-.414.85-.404.85-.383.871-.363.892-.332.892-.321.902-.3.912-.269.923-.249.933-.238.933-.197.954-.187.954-.166.975-.135.975-.114.975-.083.995-.062.995-.041.995-.01 1.016.01 1.006.041 1.006.062.995.083.985.114.985.135.975.166.964.187.954.197.954.238.944.249.933.269.923.3.912.321.902.332.892.363.881.383.871.404.861.414.85.446.829.456.829.487.809.497.798.518.788.528.778.56.757.57.747.591.726.601.726.622.695.642.684.653.674.674.653.684.643.694.622.725.601.725.591.746.57.756.56.777.529.788.518.798.498.808.487.829.456.829.446.85.415.86.404.87.384.881.363.891.332.901.321.912.301.922.27.933.249.943.238.953.197.953.187.964.166.974.135.984.114.984.083.995.062 1.005.041 1.005.01 1.015-.01.995-.041.995-.062.995-.083.974-.114.974-.135.974-.166.953-.187.953-.197.933-.238.933-.249.922-.27.912-.301.901-.321.891-.332.891-.363.87-.384.86-.404.839-.415.839-.446.829-.456.808-.487.798-.498.788-.518.767-.529.767-.56.746-.57.725-.591.715-.601.705-.622.684-.643.674-.653.653-.674.632-.684.632-.695.601-.726.591-.726.57-.747.549-.757.539-.778.518-.788.497-.798.477-.809.466-.829.435-.829.425-.85.404-.861.373-.871.363-.881.342-.892.321-.902.29-.912.28-.923.249-.933.228-.944.207-.954.187-.954.155-.964.135-.975.114-.985.093-.985.062-.995.031-1.006.021-1.006-.021-1.016-.031-.995-.062-.995-.093-.995-.114-.975-.135-.975-.155-.975-.187-.954-.207-.954-.228-.933-.249-.933-.28-.923-.29-.912-.321-.902-.342-.892-.363-.892-.373-.871-.404-.85-.425-.85-.435-.84-.466-.829-.477-.809-.497-.798-.518-.788-.539-.767-.549-.767-.57-.736-.591-.736-.601-.715-.632-.705-.632-.684-.653-.674z" fill="#1a75cf"/><path d="M73.964 101.457v.415l-.021.404-.021.415-.041.404-.041.404-.062.394-.062.404-.073.394-.093.384-.093.384-.104.384-.114.384-.114.373-.135.373-.135.363-.155.363-.155.363-.166.353-.166.342-.187.342-.187.342-.197.332-.207.332-.207.321-.228.321-.218.311-.238.301-.238.301-.249.29-.259.29-.259.28-.269.28-4.01-4.013.176-.176.166-.176.166-.187.166-.197.155-.197.145-.197.145-.197.145-.207.135-.207.135-.207.135-.218.114-.218.124-.228.104-.218.114-.238.104-.228.093-.228.083-.238.093-.238.073-.249.073-.238.073-.249.062-.249.052-.259.052-.249.041-.259.031-.259.031-.259.021-.259.021-.27.01-.259v-.27h5.668zM69.27 112.8l-.28.27-.28.259-.29.259-.29.249-.3.238-.311.238-.311.228-.311.218-.321.207-.332.207-.332.197-.342.187-.342.187-.352.176-.352.166-.352.156-.363.145-.363.135-.373.135-.373.124-.383.114-.383.104-.383.093-.394.083-.394.073-.394.062-.394.062-.404.041-.414.041-.404.021-.414.021h-.414v-5.672h.269l.269-.01.259-.021.269-.021.259-.031.259-.031.259-.041.249-.052.249-.052.249-.062.249-.073.249-.073.238-.073.238-.083.238-.093.238-.093.228-.104.228-.104.228-.114.218-.114.228-.124.207-.124.218-.135.207-.145.207-.135.197-.145.197-.156.197-.156.187-.166.187-.166.187-.166.176-.176 4.01 4.013zm-11.346 4.697h-.425l-.425-.021-.414-.031-.404-.041-.404-.052-.394-.062-.394-.083-.373-.083-.383-.104-.363-.104-.363-.124-.352-.124-.352-.135-.342-.156-.342-.156-.332-.166-.321-.176-.321-.187-.321-.197-.3-.197-.311-.207-.29-.228-.29-.218-.29-.238-.28-.238-.28-.249-.269-.259-.269-.259-.259-.27-.259-.28-.249-.28-.249-.29 4.342-3.629.3.342.321.332.321.321.332.301.176.135.176.145.176.135.176.124.187.124.187.114.187.114.197.104.197.104.197.104.207.083.207.083.207.083.207.073.218.062.218.062.228.052.228.052.228.041.238.031.238.021.238.021.238.01h.249v5.672zm-10.621-5.215l-.218-.27-.207-.27-.218-.27-.197-.28-.207-.28-.197-.29-.197-.29-.187-.29-.373-.591-.352-.612-.342-.612-.332-.632-.311-.632-.3-.643-.29-.643-.28-.643-.269-.653-.259-.653-.259-.653-.238-.643 5.316-1.949.207.55.207.56.218.55.228.55.238.55.238.55.249.529.259.529.269.518.28.518.28.498.3.477.3.477.321.456.321.435.342.425-4.342 3.629zm-5.233-9.85l-.218-.591-.228-.591-.228-.581-.238-.57-.238-.57-.249-.56-.259-.55-.259-.539-.269-.518-.269-.518-.29-.498-.29-.477-.311-.467-.311-.456-.155-.218-.166-.207-.166-.207-.166-.207 4.311-3.65.218.259.218.27.207.27.207.27.197.28.197.28.197.29.187.29.373.591.352.612.342.622.332.632.321.643.311.653.29.664.29.664.28.674.269.684.269.684.259.695-5.316 1.949zm-4.311-8.326l-.3-.332-.311-.321-.155-.156-.155-.145-.166-.156-.166-.135-.166-.135-.176-.135-.176-.124-.176-.124-.187-.114-.187-.114-.187-.104-.187-.104-.197-.104-.197-.083-.197-.093-.207-.073-.207-.073-.218-.073-.207-.062-.228-.052-.218-.052-.228-.041-.228-.041-.238-.031-.238-.021-.238-.021-.249-.01h-.249v-5.672l.425.01.425.01.414.031.404.041.404.052.394.062.383.073.373.083.373.093.373.104.352.114.352.114.352.135.342.145.332.145.332.166.321.166.321.176.311.187.3.197.3.207.3.207.29.218.28.228.28.238.28.238.259.249.269.259.259.27.259.27.249.27.238.29-4.311 3.65zm-6.238-3.028h-.269l-.259.01-.269.021-.259.021-.259.031-.259.041-.259.041-.259.041-.249.062-.249.062-.249.062-.238.073-.249.083-.238.083-.238.083-.228.104-.238.093-.228.114-.218.114-.228.114-.218.124-.218.124-.207.135-.207.135-.207.145-.207.145-.197.156-.187.156-.197.156-.187.166-.176.166-.176.176-4.01-4.013.269-.259.29-.27.28-.249.3-.249.3-.249.3-.228.311-.228.321-.228.321-.207.332-.207.332-.197.342-.187.342-.187.342-.166.352-.166.363-.156.363-.156.363-.135.373-.135.373-.114.383-.114.373-.104.394-.093.383-.083.394-.083.404-.062.394-.052.404-.052.404-.031.414-.031.404-.01.414-.01v5.672zm-7.326 3.038l-.176.176-.176.187-.155.187-.166.187-.155.197-.155.197-.145.197-.145.207-.135.207-.135.218-.124.218-.124.218-.114.218-.114.228-.104.228-.104.228-.093.238-.093.238-.083.238-.083.238-.073.249-.062.249-.062.249-.052.249-.052.259-.041.249-.031.259-.031.259-.031.27-.01.259-.01.27-.01.27h-5.658v-.415l.021-.415.021-.404.041-.404.041-.404.052-.404.073-.394.073-.394.083-.394.093-.384.104-.384.114-.373.124-.384.124-.363.145-.373.145-.363.155-.353.166-.353.176-.353.176-.342.197-.342.197-.332.197-.321.218-.321.218-.321.228-.311.238-.311.238-.301.249-.29.259-.29.259-.28.269-.28 4.01 4.013z"/><text transform="translate(32.702 133.112)" xml:space="preserve" font-size="10.688" font-weight="700" font-stretch="Normal" letter-spacing="0" word-spacing="0" fill="#000" font-family="Arial" x="0" y="0"><tspan x="0" y="0"><tspan dy="0.000000" dx="0.000000">1930</tspan></tspan></text><g fill="#900002"><path d="M98.273 24.231h-1.502v1.514h16.89v.301h.3v35.305H52.743v-.301h-.3V26.347h.3v-.301h.3v-.301h16.89v-1.213H68.12v-.301h-.3v-1.203h.3v-.301h1.813v-1.815h.601v-.301h.3v-.301h.601v-.301h.601v-.301h.3v-.301h.611v-.301h.3v-.311h.601v-.301h.601v-.301h.3v-.301h.601v-.301h.611v-.301h.3v-.301h.601v-.301h.601v-.301h.3v-.301h.601v-.311h.611v-.301h.3v-.301h.601v-.301h.601v-.301h.3v-.301h.611v-.301h.601v-.301h.3v-.301h.601v-.301h.901v.301h.3v.301h.611v.301h.601v.301h.601v.301h.3v.301h.601v.301h.611v.301h.3v.301h.601v.311h.601v.301h.601v.301h.3v.301h.611v.301h.601v.301h.3v.301h.601v.301h.601v.301h.611v.301h.3v.311h.601v.301h.601v.301h.3v.301h.601v.301h.611v.301h.3v.301h.3v1.815h1.803v1.203h-.3v.301zM79.58 2.81h-2.715v.301h-1.513v.301H73.85v.301h-1.513v.301h-.901v.311h-1.202v.301h-.912v.301h-.901v.301h-.601v.301h-.901v.301h-.611v.301h-.601v.301h-.901v.301h-.601v.301h-.611v.311h-.601v.301h-.3v.301h-.601v.301h-.601v.301h-.601v.301h-.311v.301h-.601v.301h-.3v.301h-.601v.301h-.3v.311h-.601v.301h-.311v.301h-.3v.301h-.601v.301h-.3v.301h-.3v.301h-.3v.301h-.601v.301h-.3v.311h-.311v.301h-.3v.301h-.3v.301h-.3v.301h-.3v.301h-.3v.301h-.3v.301h-.3v.301h-.3v.301h-.3v.311h-.311v.301h-.3v.301h-.3v.301h-.3v.301h-.3v.601h-.3v.301h-.3v.301h-.3v.301h-.3v.612h-.311v.301h-.3v.301h-.3v.601h-.3v.301h-.3v.601h-.3v.301h-.3v.612h-.3v.301h-.3v.601h-.3v.601h-.311v.301h-.3v.612h-.3v.601h-.3v.601h-.3v.601h-.3v.601h-.3v.912h-.3v.601h-.3v.601h-.3v.902h-.311v.912h-.3v.902h-.3v.902h-.3v1.213h-.3v.902h-.3v1.815h-.3v2.105h-.3v2.416h-.3v6.636h.3v3.017h.3v1.815h.3v1.514h.3v.902h.3v1.203h.3v.912h.3v.902h.3v.902h.311v.912h.3v.601h.3v.902h.3v.601h.3v.601h.3v.612h.3v.601h.3v.601h.3v.601h.3v.601h.311v.311h.3v.601h.3v.601h.3v.301h.3v.601h.3v.301h.3v.612h.3v.301h.3v.301h.3v.601h.311v.301h.3v.301h.3v.301h.3v.612h.3v.301h.3v.301h.3v.301h.3v.301h.3v.301h.311v.301h.3v.301h.3v.301h.3v.301h.3v.311h.3v.301h.3v.301h.3v.301h.3v.301h.3v.301h.311v.301h.3v.301h.3v.301h.601v.301h.3v.311h.3v.301h.3v.301h.601v.301h.311v.301h.601v.301h.3v.301h.3v.301h.601v.301h.601v.311h.311v.301h.601v.301h.601v.301h.3v.301h.601v.301h.601v.301h.611v.301h.601v.301h.601v.301h.601v.311h.912v.301h.601v.301h.901v.301h.901v.301h.912v.301h.901v.301h1.202v.301h1.212v.301h1.502v.301h1.513v.311h2.414v.301h7.834v-.301h2.414v-.311h1.513v-.301h1.502v-.301h1.212v-.301h1.202v-.301h.901v-.301h.912v-.301h.901v-.301h.901v-.301h.601v-.301h.912v-.311h.601v-.301h.601v-.301h.601v-.301h.611v-.301h.601v-.301h.601v-.301h.601v-.301h.3v-.301h.611v-.301h.601v-.311h.3v-.301h.601v-.301h.3v-.301h.601v-.301h.3v-.301h.311v-.301h.601v-.301h.3v-.301h.3v-.311h.601v-.301h.3v-.301h.3v-.301h.3v-.301h.311v-.301h.3v-.301h.3v-.301h.601v-.301h.3v-.301h.3v-.311h.3v-.301h.3v-.301h.311v-.601h.3v-.301h.3v-.301h.3v-.301h.3v-.301h.3v-.301h.3v-.311h.3v-.601h.301v-.301h.3v-.301h.311v-.601h.3v-.301h.3V69.2h.3v-.612h.3v-.301h.3v-.601h.3v-.301h.3v-.601h.3v-.301h.3v-.612h.311v-.601h.3v-.601h.3v-.601h.3v-.601h.3v-.612h.3v-.601h.3v-.601h.3v-.601h.3v-.902h.3v-.612h.311v-.902h.3v-.902h.3v-1.213h.3v-.902h.3v-1.514h.3v-.902h.3v-2.115h.3v-2.406h.3v-7.548h-.3v-2.416h-.3v-2.416h-.3v-.902h-.3v-1.503h-.3v-.912h-.3V31.78h-.3v-.902h-.3v-.612h-.311v-.902h-.3v-.601h-.3v-.902h-.3v-.612h-.3v-.601h-.3v-.601h-.3v-.601h-.3v-.601h-.3v-.612h-.3v-.601h-.311v-.301h-.3v-.601h-.3v-.601h-.3v-.311h-.3v-.601h-.3v-.301h-.3v-.601h-.3v-.301h-.3v-.301h-.3v-.601h-.311v-.311h-.3v-.301h-.301v-.301h-.3v-.601h-.3v-.301h-.3v-.301h-.3v-.301h-.3v-.301h-.3v-.301h-.3v-.311h-.311v-.301h-.3v-.301h-.3v-.301h-.3v-.301h-.3v-.301h-.3v-.301h-.3v-.301h-.3v-.301h-.3v-.301h-.311v-.311h-.3v-.301h-.3v-.301h-.601v-.301h-.3v-.301h-.3v-.301h-.3v-.301h-.601v-.301h-.311v-.301h-.601v-.311h-.3v-.301h-.601v-.301h-.3v-.301h-.601v-.301h-.3v-.301h-.611v-.301h-.601v-.301h-.3v-.301h-.601v-.301h-.601V7.03h-.611v-.301h-.601v-.301h-.601v-.301h-.901v-.301h-.611v-.301h-.901v-.301h-.601v-.301h-.901v-.301h-.912v-.301h-.901v-.311h-1.502v-.301h-1.212v-.301H90.44v-.301h-1.513V2.81H85.31v-.301h-5.73v.301z"/><path d="M70.534 57.432H96.17v1.503H70.534v-1.503zm2.715-2.416h20.506v1.503H73.249v-1.503zm8.445-7.248h.3v-.601h.3v-.301h1.803v.301h.311v.301h.3v.301h.3v5.734h-3.316v-5.734zm-5.43 0h.3v-.601h.3v-.301h1.813v.301h.601v.601h.3v5.734h-3.316v-5.734zm10.849 0h.311v-.301h.3v-.301h.3v-.301h1.803v.301h.3v.601h.311v5.734h-3.015v-.301h-.311v-5.433zm6.342-.301h3.316v4.832h-3.316v-4.832zm-23.522 0h3.316v4.832h-3.316v-4.832zm31.967 4.832h-3.026v-4.832h3.326v4.531h-.3v.301zm-34.081 0h-3.015v-4.832h3.316v4.531h-.3v.301zm19.294-13.583h.311v-.601h.3v-.301h.601v-.301h1.202v.301h.3v.301h.3v.301h.311v5.734h-3.326v-5.433zm-5.419-.301h.3v-.301h.3v-.301h.3v-.301h1.502v.301h.311v.301h.3v.601h.3v5.433h-3.316v-5.734zm-5.43 0h.3v-.301h.3v-.301h.3v-.301h1.513v.301h.3v.301h.3v.601h.3v5.433h-3.316v-5.734zm22.61 0h3.026v.301h.3v4.531h-3.326v-4.832zm-5.419 0h3.316v4.832h-3.316v-4.832zm-23.522 0h3.316v4.832h-3.316v-4.832zm-5.129 0h3.015v.301h.3v4.531h-3.316v-4.832zm16.89-9.052h.3v-.601h.3v-.301h1.803v.301h.311v.301h.3v.301h.3v5.734h-3.316v-5.734zm-5.43 0h.3v-.601h.3v-.301h1.813v.301h.3v.301h.3v.301h.3v5.734h-3.316v-5.734zm10.849 0h.311v-.301h.3v-.301h.3v-.301h1.803v.301h.3v.601h.311v5.734h-3.015v-.301h-.311v-5.433zm11.761.301h3.026v.301h.3v4.531h-3.326v-4.832zm-5.419 0h3.316v4.832h-3.316v-4.832zm-23.522 0h3.316v4.832h-3.316v-4.832zm-5.129 0h3.015v.301h.3v4.531h-3.316v-4.832zm20.506-4.521h-.3v.301h-.3v.301h-.3v.301h-2.114v-.301h-.601v-.301h-.3v-.301h-.311v-2.416h.311v-.601h.3v-.311h.601v-.301h2.114v.301h.3v.311h.3v.301h.3v.601h.3v1.815h-.3v.301zm-2.114-6.346h-.601v.311h-.601v.301h-.601v.301h-.311v.301h-.601v.301h-.601v.301h-.3v.301h-.601v.301h-.611v.301h-.3v.301h-.601v.311h-.601v.301h-.601v.301h-.3v.301h-.611v.301h-.601v.301h-.3v.301h-.601v.301h-.601v.301h-1.813v2.717H62.69v32.589h41.313V27.249h-8.445v-.301h-.3v-2.717h-2.103v-.301h-.611v-.301h-.3v-.301h-.601v-.301h-.601v-.301h-.601v-.301h-.611v-.301h-.3v-.311h-.601v-.301h-.601v-.301h-.601v-.301h-.3v-.301h-.611v-.301h-.601v-.301h-.601v-.301h-.3v-.301h-.601v-.301h-.611v-.311h-.601v-.301h-.3v.301z"/></g><path d="M105.516 27.249h6.932v32.589h-6.932V27.249zm-42.826 0h8.746v-2.717h1.813v-.301h.601v-.301h.601v-.301h.3v-.301h.601v-.301h.611v-.301h.3v-.301h.601v-.301h.601v-.311h.601v-.301h.3v-.301h.611v-.301h.601v-.301h.3v-.301h.601v-.301h.601v-.301h.311v-.301h.601v-.301h.601v-.311h.601v-.301h.3v.301h.601v.311h.611v.301h.601v.301h.3v.301h.601v.301h.601v.301h.611v.301h.3v.301h.601v.301h.601v.301h.601v.311h.3v.301h.611v.301h.601v.301h.601v.301h.601v.301h.3v.301h.611v.301h2.103v2.717h.3v.301h8.445v32.589H62.69V27.249zm-8.746 0h7.243v32.589h-7.243V27.249zm28.651-9.954h-.601v.301h-.3v.301h-.611v.301h-.601v.301h-.601v.301h-.3v.311h-.601v.301h-.611v.301h-.3v.301h-.601v.301h-.601v.301h-.601v.301h-.3v.301h-.611v.301h-.601v.301h-.3v.311h-.601v.301h-.601v.301h-1.813v-.912h.601v-.301h.3v-.301h.611v-.301h.3v-.301h.601v-.301h.601v-.301h.3v-.301h.601v-.301h.611v-.301h.3v-.311h.601v-.301h.601v-.301h.3v-.301h.601v-.301h.611v-.301h.3v-.301h.601v-.301h.601v-.301h.3v-.301h.611v-.311h.601v-.301h.3v-.301h.601v-.301h.901v.301h.3v.301h.611v.301h.601v.311h.601v.301h.3v.301h.601v.301h.611v.301h.601v.301h.3v.301h.601v.301h.601v.301h.3v.301h.611v.311h.601v.301h.601v.301h.3v.301h.601v.301h.611v.301h.3v.301h.601v.301h.601v.301h.601v1.213h-1.803v-.301h-.3v-.301h-.611v-.311h-.601v-.301h-.3v-.301h-.601v-.301h-.601v-.301h-.611v-.301h-.3v-.301h-.601v-.301h-.601v-.301h-.601v-.301h-.611v-.311h-.3v-.301h-.601v-.301h-.601v-.301h-.601v-.301h-.3v-.301h-.611v-.301h-1.502v.301zm.3-3.919h-.601v.301h-.3v.301h-.601v.301h-.611v.301h-.3v.301h-.601v.301h-.601v.301h-.3v.301h-.611v.311h-.601v.301h-.3v.301h-.601v.301h-.601v.301h-.3v.301h-.611v.301h-.601v.301h-.3v.301h-.601v.301h-.601v.311h-.3v.301h-.611v.301h-.3v.301h-.601v.301h-.601v.301h-.3v.301h-.601v1.815H68.12v.301h-.3v1.203h.3v.301h1.813v1.213h-16.89v.301h-.3v.301h-.3V61.05h.3v.301h61.219V26.046h-.3v-.301h-16.89v-1.514h1.502v-.301h.3v-1.203h-1.803v-1.815h-.3v-.301h-.3v-.301h-.611v-.301h-.601v-.301h-.3v-.301h-.601v-.301h-.601v-.311h-.3v-.301h-.611v-.301h-.601v-.301h-.601v-.301h-.3v-.301h-.601v-.301h-.611v-.301h-.3v-.301h-.601v-.301h-.601v-.311h-.601v-.301h-.3v-.301h-.611v-.301h-.601v-.301h-.3v-.301h-.601v-.301h-.601v-.301h-.611v-.301h-.3v-.301h-.901v.301z" fill="#fcfefe"/><path d="M56.058 47.468h3.316V52.3h-3.316v-4.832zm0-9.052h3.316v4.832h-3.316v-4.832zm0-8.751h3.316v4.832h-3.316v-4.832zm-2.114 30.173h7.243V27.249h-7.243v32.589zm53.375-12.37h3.316V52.3h-3.316v-4.832zm0-9.052h3.316v4.832h-3.316v-4.832zm0-8.751h3.316v4.832h-3.316v-4.832zm-1.803 30.173h6.932V27.249h-6.932v32.589zM82.896 15.18h-.601v.301h-.3v.301h-.601v.311h-.611v.301h-.3v.301h-.601v.301h-.601v.301h-.3v.301h-.611v.301h-.601v.301h-.3v.301h-.601v.301h-.601v.311h-.3v.301h-.611v.301h-.601v.301h-.3v.301h-.601v.301h-.601v.301h-.3v.301h-.611v.301h-.3v.301h-.601v.912h1.813v-.301h.601v-.301h.601v-.311h.3v-.301h.601v-.301h.611v-.301h.3v-.301h.601v-.301h.601v-.301h.601v-.301h.3v-.301h.611v-.301h.601v-.311h.3V18.5h.601v-.301h.601v-.301h.611v-.301h.3v-.301h.601v-.301h1.502v.301h.611v.301h.3v.301h.601v.301h.601v.301h.601v.301h.3v.311h.611v.301h.601v.301h.601v.301h.601v.301h.3v.301h.611v.301h.601v.301h.601v.301h.3v.301h.601v.311h.611v.301h.3v.301h1.803v-1.213h-.601v-.301h-.601v-.301h-.601v-.301h-.3v-.301h-.611v-.301h-.601v-.301h-.3v-.301h-.601v-.301h-.601v-.311h-.611v-.301h-.3V18.2h-.601v-.301h-.601v-.301h-.3v-.301h-.601v-.301h-.611v-.301h-.601v-.301h-.3v-.301h-.601v-.311h-.601v-.301h-.611v-.301h-.3v-.301h-.901v.301z" fill="#900002"/><g fill="#fcfefe"><path d="M70.534 58.935H96.17v-1.503H70.534v1.503zm2.715-2.416h20.506v-1.503H73.249v1.503zm3.616-9.352h-.3v.601h-.3v5.734h3.316v-5.734h-.3v-.601h-.601v-.301h-1.813v.301zm5.43 0h-.3v.601h-.3v5.734h3.316v-5.734h-.3v-.301h-.3v-.301H84.1v-.301h-1.803v.301zm0-18.404h-.3v.601h-.3v5.734h3.316v-5.734h-.3v-.301h-.3v-.301H84.1v-.301h-1.803v.301zm-5.43 0h-.3v.601h-.3v5.734h3.316v-5.734h-.3v-.301h-.3v-.301h-.3v-.301h-1.813v.301zm11.16 18.404h-.3v.301h-.3v.301h-.311v5.433h.311v.301h3.015v-5.734h-.311v-.601h-.3v-.301h-1.803v.301zm0-18.404h-.3v.301h-.3v.301h-.311v5.433h.311v.301h3.015v-5.734h-.311v-.601h-.3v-.301h-1.803v.301zm-5.429 9.051h-.3v.301h-.3v.301h-.3v5.734h3.316v-5.433h-.3v-.601h-.3v-.301h-.311v-.301h-1.502v.301zm-5.43 0h-.3v.301h-.3v.301h-.3v5.734h3.316v-5.433h-.3v-.601h-.3v-.301h-.3v-.301h-1.513v.301zm11.16 0h-.601v.301h-.3v.601h-.311v5.433h3.326v-5.734h-.311v-.301h-.3v-.301h-.3v-.301h-1.202v.301zm-6.031-15.998h-.601v.311h-.3v.601h-.311v2.416h.311v.301h.3v.301h.601v.301h2.114v-.301h.3v-.301h.3v-.301h.3v-.301h.3v-1.815h-.3v-.601h-.3v-.301h-.3v-.311h-.3v-.301h-2.114v.301z"/><use xlink:href="#B"/><use xlink:href="#B" x="37.386" y="-17.803"/><use xlink:href="#B" y="-9.051"/><use xlink:href="#B" x="37.386" y="-9.051"/><use xlink:href="#B" x="37.386"/><use xlink:href="#B" y="-17.803"/><use xlink:href="#B" x="23.522"/><use xlink:href="#B" x="23.522" y="-17.803"/><use xlink:href="#B" x="-13.875"/><use xlink:href="#B" x="23.522" y="-9.051"/><use xlink:href="#B" x="-13.875" y="-17.803"/></g><g fill="#fcfdfe"><use xlink:href="#B" x="-13.875" y="-9.051"/><path d="M98.874 34.496h3.326v-4.531h-.3v-.301h-3.026v4.832z"/></g><path d="M64.804 52.299h3.015v-.301h.3v-4.531h-3.316v4.832z" fill="#fcfefe"/><path d="M98.874 52.299h3.026v-.301h.3v-4.531h-3.326v4.832zm-34.07-9.051h3.316v-4.531h-.3v-.301h-3.015v4.832zm34.07 0h3.326v-4.531h-.3v-.301h-3.026v4.832zm-34.07-8.752h3.316v-4.531h-.3v-.301h-3.015v4.832z" fill="#fcfdfe"/><path d="M78.979 73.721h-.3v1.815h.3v.301h.3v.301h.901v-.301h.601v-.601h.3v-1.514h-.3v-.301h-.3v-.301h-1.502v.601zm6.331-.301h-.3v2.115h.3v.301h.3v.301h.901v-.301h.601v-.601h.311v-1.213h-.311v-.601h-.3v-.301H85.31v.301zm-6.03-3.618h-.3v.301h-.3v1.503h.3v.311h.3v.301h1.202v-.301h.3v-2.115h-.3v-.301H79.28v.301zm6.331 0h-.3v.301h-.3v1.503h.3v.311h.3v.301h1.202v-.301h.3v-2.115h-.3v-.301h-1.202v.301z" fill="#900002"/><path d="M82.896 0l1.15.01 1.15.052 1.14.073 1.129.093 1.129.135 1.109.156 1.109.176 1.098.218 1.088.238 1.078.259 1.067.29 1.057.311 1.036.342 1.036.363 1.026.384 1.005.415.995.435.984.467.974.477.953.508.943.529.933.55.912.57.902.591.891.612.87.643.85.653.839.674.819.695.798.705.788.736.767.747.746.767.736.788.715.809.694.819.674.829.653.861.632.871.611.881.591.902.57.912.549.933.528.944.508.954.487.975.456.985.435.995.414 1.016.383 1.016.373 1.037.332 1.047.321 1.058.28 1.068.269 1.078.238 1.078.207 1.099.187 1.109.155 1.12.124 1.12.104 1.13.073 1.141.041 1.151.01 1.151-.01 1.161-.041 1.141-.073 1.141-.104 1.141-.124 1.12-.155 1.12-.187 1.099-.207 1.099-.238 1.089-.269 1.078-.28 1.068-.321 1.058-.332 1.047-.373 1.026-.383 1.026-.414 1.006-.435 1.006-.456.985-.487.964-.508.964-.528.944-.549.923-.57.923-.591.902-.611.881-.632.871-.653.85-.674.84-.694.819-.715.798-.736.788-.746.767-.767.757-.788.726-.798.715-.819.695-.839.674-.85.653-.87.632-.891.612-.902.601-.912.57-.933.55-.943.529-.953.498-.974.487-.984.456-.995.435-1.005.415-1.026.394-1.036.363-1.036.342-1.057.311-1.067.29-1.078.259-1.088.238-1.098.207-1.109.187-1.109.156-1.129.124-1.129.104-1.14.073-1.15.041-1.15.021-1.15-.021-1.15-.041-1.14-.073-1.129-.104-1.129-.124-1.109-.156-1.109-.187-1.098-.207-1.088-.238-1.078-.259-1.067-.29-1.057-.311-1.036-.342-1.036-.363-1.026-.394-1.005-.415-.995-.435-.984-.456-.974-.487-.953-.498-.943-.529-.933-.55-.912-.57-.901-.601-.891-.612-.86-.632-.86-.653-.839-.674-.819-.695-.798-.715-.788-.726-.767-.757-.746-.767-.736-.788-.715-.798-.694-.819-.674-.84-.653-.85-.632-.871-.611-.881-.591-.902-.57-.923-.549-.923-.528-.944-.508-.964-.487-.964-.456-.985-.435-1.006-.414-1.006-.383-1.026-.373-1.026-.332-1.047-.321-1.058-.28-1.068-.269-1.078-.238-1.089-.207-1.099-.187-1.099-.155-1.12-.124-1.12-.104-1.141-.073-1.141-.041-1.141-.01-1.161.01-1.151.041-1.151.073-1.141.104-1.13.124-1.12.155-1.12.187-1.109.207-1.099.238-1.078.269-1.078.28-1.068.321-1.058.332-1.047.373-1.037.383-1.016.414-1.016.435-.995.456-.985.487-.975.508-.954.528-.944.549-.933.57-.912.591-.902.611-.881.632-.871.653-.861.674-.829.694-.819.715-.809.736-.788.746-.767.767-.747.788-.736.798-.705.819-.695.839-.674.86-.653.86-.643.891-.612.901-.591.912-.57.933-.55.943-.529.953-.508.974-.477.984-.467.995-.435 1.005-.415 1.026-.384 1.036-.363 1.036-.342 1.057-.311 1.067-.29 1.078-.259 1.088-.238 1.098-.218 1.109-.176 1.109-.156 1.129-.135 1.129-.093 1.14-.073 1.15-.052 1.15-.01zm27.615 17.119l-.663-.653-.694-.643-.694-.622-.715-.601-.736-.591-.746-.57-.756-.56-.767-.529-.788-.518-.798-.498-.819-.487-.819-.456-.839-.446-.85-.415-.86-.404-.87-.384-.881-.363-.891-.332-.901-.321-.912-.301-.922-.27-.933-.249-.943-.238-.943-.197-.964-.187-.964-.166-.974-.135-.984-.114-.984-.083-.995-.062-1.005-.041-1.005-.01-1.005.01-1.005.041-.995.062-.984.083-.984.114-.974.135-.964.166-.964.187-.943.197-.943.238-.933.249-.922.27-.912.301-.901.321-.891.332-.881.363-.87.384-.86.404-.85.415-.839.446-.819.456-.819.487-.798.498-.788.518-.767.529-.756.56-.746.57-.736.591-.715.601-.694.622-.694.643-.663.653-.663.674-.632.684-.622.695-.611.726-.58.726-.58.747-.549.757-.539.778-.518.788-.497.798-.477.809-.456.829-.446.829-.425.85-.394.861-.383.871-.363.881-.342.892-.311.902-.3.912-.269.923-.259.933-.228.944-.207.954-.176.954-.166.964-.135.975-.114.985-.083.985-.062.995-.041 1.006-.01 1.006.01 1.016.041.995.062.995.083.995.114.975.135.975.166.975.176.954.207.954.228.933.259.933.269.923.3.912.311.902.342.892.363.892.383.871.394.861.425.84.446.84.456.829.477.809.497.798.518.788.539.767.549.767.58.736.58.736.611.715.622.705.632.684.663.674.663.653.694.632.694.622.715.612.736.591.746.57.756.55.767.539.788.518.798.498.819.477.819.467.839.435.85.425.86.404.87.373.881.363.891.342.901.321.912.29.922.28.933.249.943.228.943.207.964.187.964.156.974.135.984.114.984.093.995.062 1.005.031 1.005.021 1.005-.021 1.005-.031.995-.062.984-.093.984-.114.974-.135.964-.156.964-.187.943-.207.943-.228.933-.249.922-.28.912-.29.901-.321.891-.342.881-.363.87-.373.86-.404.85-.425.839-.435.819-.467.819-.477.798-.498.788-.518.767-.539.756-.55.746-.57.736-.591.715-.612.694-.622.694-.632.663-.653.663-.674.632-.684.622-.705.611-.715.58-.736.58-.736.549-.767.539-.767.518-.788.497-.798.477-.809.456-.829.446-.84.425-.84.394-.861.383-.871.363-.892.342-.892.311-.902.3-.912.269-.923.259-.933.228-.933.207-.954.187-.954.155-.975.135-.975.114-.975.083-.995.062-.995.041-.995.01-1.016-.01-1.006-.041-1.006-.062-.995-.083-.985-.114-.985-.135-.975-.155-.964-.187-.954-.207-.954-.228-.944-.259-.933-.269-.923-.3-.912-.311-.902-.342-.892-.363-.881-.383-.871-.394-.861-.425-.85-.446-.829-.456-.829-.477-.809-.497-.798-.518-.788-.539-.778-.549-.757-.58-.747-.58-.726-.611-.726-.622-.695-.632-.684-.663-.674z" fill="#fae073"/><text transform="translate(71.125 76.209)" xml:space="preserve" font-size="10.688" font-weight="700" font-stretch="Normal" letter-spacing="0" word-spacing="0" fill="#000" font-family="Arial" x="0" y="0"><tspan x="0" y="0"><tspan dy="0.000000" dx="0.000000" fill="#fff">1885</tspan></tspan></text><defs ><path id="B" d="M69.933 52.299h3.316v-4.832h-3.316v4.832z"/></defs></svg>